<!-- Generated by IcoMoon.io -->
<svg version="1.1" xmlns="http://www.w3.org/2000/svg" width="32" height="32" viewBox="0 0 32 32">
<title>article_list</title>
<path d="M16 5.333c4.418 0 8 3.552 8 7.933 0 2.695-1.355 5.077-3.427 6.51l-0.002 8.223-4.571-3.4-4.571 3.4-0-8.222c-2.072-1.434-3.428-3.815-3.428-6.511 0-4.381 3.582-7.933 8-7.933zM18.685 21.032h-5.332v2.654l2.647-1.133 2.685 1.133v-2.654zM16.008 7.372c-3.314 0-6 2.664-6 5.95s2.686 5.95 6 5.95c3.314 0 6-2.664 6-5.95s-2.686-5.95-6-5.95z"></path>
</svg>
