<!-- Generated by IcoMoon.io -->
<svg version="1.1" xmlns="http://www.w3.org/2000/svg" width="32" height="32" viewBox="0 0 32 32">
<title>article_cate</title>
<path d="M9 20.267v2.4h-2.333v-2.4h2.333zM24.167 20.267c0.644 0 1.167 0.537 1.167 1.2s-0.522 1.2-1.167 1.2h-11.667c-0.644 0-1.167-0.537-1.167-1.2s0.522-1.2 1.167-1.2h11.667zM9 15.467v2.4h-2.333v-2.4h2.333zM24.167 15.467c0.644 0 1.167 0.537 1.167 1.2s-0.522 1.2-1.167 1.2h-11.667c-0.644 0-1.167-0.537-1.167-1.2s0.522-1.2 1.167-1.2h11.667zM9 10.667v2.4h-2.333v-2.4h2.333zM24.167 10.667c0.644 0 1.167 0.537 1.167 1.2s-0.522 1.2-1.167 1.2h-11.667c-0.644 0-1.167-0.537-1.167-1.2s0.522-1.2 1.167-1.2h11.667z"></path>
</svg>
