<!-- Generated by IcoMoon.io -->
<svg version="1.1" xmlns="http://www.w3.org/2000/svg" width="32" height="32" viewBox="0 0 32 32">
<title>article</title>
<path d="M12.667 17.042c1.090 0 2.016 0.765 2.245 1.868l0.035 0.211 0.011 0.213v5.556c0 1.090-0.765 2.016-1.868 2.245l-0.211 0.035-0.213 0.011h-5.556c-1.090 0-2.016-0.765-2.245-1.868l-0.035-0.211-0.011-0.213v-5.556c0-1.090 0.765-2.016 1.868-2.245l0.211-0.035 0.213-0.011h5.556zM24.889 17.042c1.090 0 2.016 0.765 2.245 1.868l0.035 0.211 0.011 0.213v5.556c0 1.090-0.765 2.016-1.868 2.245l-0.211 0.035-0.213 0.011h-5.556c-1.090 0-2.016-0.765-2.245-1.868l-0.035-0.211-0.011-0.213v-5.556c0-1.090 0.765-2.016 1.868-2.245l0.211-0.035 0.213-0.011h5.556zM12.6 19.401l-5.42-0.003-0.003 5.42 5.42 0.003 0.003-5.42zM24.821 19.401l-5.42-0.003-0.003 5.42 5.421 0.003 0.001-5.42zM12.667 4.82c1.090 0 2.016 0.765 2.245 1.868l0.035 0.211 0.011 0.213v5.556c0 1.090-0.765 2.016-1.868 2.245l-0.211 0.035-0.213 0.011h-5.556c-1.090 0-2.016-0.765-2.245-1.868l-0.035-0.211-0.011-0.213v-5.556c0-1.090 0.765-2.016 1.868-2.245l0.211-0.035 0.213-0.011h5.556zM24.889 4.82c1.090 0 2.016 0.765 2.245 1.868l0.035 0.211 0.011 0.213v5.556c0 1.090-0.765 2.016-1.868 2.245l-0.211 0.035-0.213 0.011h-5.556c-1.090 0-2.016-0.765-2.245-1.868l-0.035-0.211-0.011-0.213v-5.556c0-1.090 0.765-2.016 1.868-2.245l0.211-0.035 0.213-0.011h5.556zM12.6 7.18l-5.42-0.003-0.003 5.42 5.42 0.003 0.003-5.42zM24.821 7.18l-5.42-0.003-0.003 5.42 5.421 0.003 0.001-5.42z"></path>
</svg>
