<!-- Generated by IcoMoon.io -->
<svg version="1.1" xmlns="http://www.w3.org/2000/svg" width="32" height="32" viewBox="0 0 32 32">
<title>article_info</title>
<path d="M16.466 6.761c0.276 0.117 0.497 0.333 0.616 0.604l2.421 5.51 6.095 0.554c0.648 0.059 1.124 0.621 1.064 1.256-0.028 0.294-0.169 0.566-0.395 0.761l-4.599 3.96 1.346 5.853c0.143 0.622-0.255 1.24-0.89 1.38-0.294 0.065-0.601 0.017-0.86-0.134l-5.263-3.063-5.263 3.063c-0.559 0.326-1.282 0.145-1.614-0.403-0.154-0.254-0.202-0.555-0.136-0.843l1.346-5.853-4.599-3.96c-0.489-0.421-0.537-1.15-0.107-1.629 0.199-0.222 0.476-0.36 0.776-0.388l6.095-0.554 2.421-5.51c0.257-0.586 0.95-0.856 1.548-0.604zM18.153 14.786l-2.153-4.9-2.153 4.9-5.421 0.492 4.091 3.521-1.197 5.204 4.681-2.723 4.679 2.723-1.196-5.204 4.090-3.521-5.42-0.492z"></path>
</svg>
