<!-- Generated by IcoMoon.io -->
<svg version="1.1" xmlns="http://www.w3.org/2000/svg" width="32" height="32" viewBox="0 0 32 32">
<title>home</title>
<path d="M8 28c-1.473 0-2.667-1.194-2.667-2.667v-9.653c0-0.653 0.24-1.284 0.674-1.772l8-9c0.978-1.101 2.664-1.2 3.765-0.221 0.078 0.069 0.152 0.143 0.221 0.221l8 9c0.434 0.488 0.674 1.119 0.674 1.772v9.653c0 1.473-1.194 2.667-2.667 2.667h-16zM16 6.681l-8 9v9.653l4-0.001v-6.666c0-0.736 0.597-1.333 1.333-1.333h5.333c0.736 0 1.333 0.597 1.333 1.333v6.666l4 0.001v-9.653l-8-9zM17.333 20h-2.667v5.333h2.667v-5.333z"></path>
</svg>
