<!-- Generated by IcoMoon.io -->
<svg version="1.1" xmlns="http://www.w3.org/2000/svg" width="32" height="32" viewBox="0 0 32 32">
<title>logout</title>
<path d="M22.113 8.28c0.716 0.517 1.352 1.102 1.907 1.756 0.557 0.655 1.033 1.361 1.431 2.12s0.699 1.563 0.906 2.411c0.206 0.848 0.31 1.708 0.31 2.58 0 1.502-0.283 2.911-0.846 4.227-0.565 1.316-1.327 2.464-2.289 3.441-0.961 0.977-2.089 1.752-3.385 2.325-1.294 0.574-2.681 0.86-4.159 0.86-1.461 0-2.839-0.286-4.136-0.86-1.294-0.574-2.427-1.349-3.396-2.325s-1.731-2.124-2.288-3.441c-0.557-1.316-0.834-2.725-0.834-4.227 0-0.856 0.098-1.696 0.296-2.52 0.199-0.823 0.482-1.607 0.848-2.35s0.817-1.437 1.357-2.083c0.54-0.646 1.144-1.228 1.812-1.744 0.35-0.258 0.729-0.355 1.133-0.291s0.734 0.266 0.989 0.605c0.255 0.339 0.349 0.719 0.287 1.139-0.064 0.42-0.262 0.759-0.597 1.018-1 0.743-1.767 1.655-2.299 2.737s-0.799 2.245-0.799 3.489c0 1.066 0.198 2.071 0.597 3.016 0.396 0.945 0.94 1.769 1.632 2.471 0.693 0.702 1.501 1.26 2.432 1.672 0.929 0.412 1.918 0.617 2.967 0.617 1.050 0 2.039-0.205 2.968-0.617s1.74-0.969 2.432-1.672c0.691-0.703 1.238-1.526 1.644-2.471s0.608-1.95 0.608-3.016c0-1.26-0.287-2.451-0.859-3.573s-1.374-2.047-2.407-2.774c-0.349-0.242-0.56-0.574-0.632-0.993s0.012-0.808 0.251-1.164c0.238-0.339 0.564-0.545 0.976-0.617 0.414-0.073 0.795 0.012 1.144 0.254zM15.989 17.333c-0.364 0-0.675-0.146-0.934-0.438-0.259-0.292-0.388-0.643-0.388-1.053v-8.994c0-0.411 0.129-0.765 0.388-1.065 0.26-0.3 0.571-0.45 0.934-0.45 0.378 0 0.697 0.15 0.955 0.45 0.26 0.3 0.389 0.655 0.389 1.065v8.994c0 0.411-0.129 0.762-0.389 1.053-0.259 0.292-0.577 0.438-0.955 0.438z"></path>
</svg>
