<!-- Generated by IcoMoon.io -->
<svg version="1.1" xmlns="http://www.w3.org/2000/svg" width="32" height="32" viewBox="0 0 32 32">
<title>user_pic</title>
<path d="M24 9.212h0.008c0.706 0 1.384 0.268 1.883 0.746s0.778 1.125 0.776 1.799v11.030c0 1.406-1.193 2.545-2.659 2.545h-16.017c-0.706-0-1.384-0.269-1.882-0.746s-0.778-1.125-0.776-1.799v-11.030c0-1.406 1.193-2.546 2.659-2.546h0.008v-0.006c0.004-1.401 1.193-2.536 2.66-2.54h10.679c1.468 0.004 2.657 1.139 2.66 2.54v0.006zM22.243 9.476v-0.006c0-0.942-0.798-0.843-1.783-0.843h-8.878c-0.986 0-1.783-0.104-1.783 0.843v0.006h12.444zM7.329 12.829v8.885c0 0.933 0.792 1.69 1.769 1.69h13.839c0.971 0 1.769-0.757 1.769-1.69v-8.885c0-0.933-0.792-1.689-1.769-1.69h-13.839c-0.97 0-1.769 0.757-1.769 1.69zM9.798 11.173h12.444v-1.697h-12.444v1.697zM16 21.939c-2.946 0-5.333-2.279-5.333-5.091s2.388-5.091 5.333-5.091c2.945 0 5.333 2.279 5.333 5.091s-2.388 5.091-5.333 5.091zM16 20.242c1.27 0 2.444-0.647 3.079-1.697s0.635-2.344 0-3.394c-0.635-1.050-1.809-1.697-3.079-1.697-1.964 0-3.555 1.52-3.555 3.394s1.592 3.394 3.555 3.394zM21.333 13.455c0-0.468 0.394-0.848 0.888-0.848h0.891c0.491 0 0.888 0.377 0.888 0.848 0 0.468-0.394 0.848-0.888 0.848h-0.891c-0.236 0-0.462-0.089-0.629-0.248s-0.26-0.375-0.259-0.6z"></path>
</svg>
