<!-- Generated by IcoMoon.io -->
<svg version="1.1" xmlns="http://www.w3.org/2000/svg" width="32" height="32" viewBox="0 0 32 32">
<title>user</title>
<path d="M18.64 17.401l0.684 0.007 0.61 0.013 0.544 0.021 0.485 0.030c0.688 0.052 1.204 0.14 1.664 0.283v0l0.3 0.104c0.147 0.056 0.291 0.119 0.435 0.19 1.173 0.571 2.127 1.482 2.725 2.602v0l0.118 0.232 0.104 0.23c0.032 0.077 0.062 0.155 0.090 0.234v0l0.078 0.244 0.035 0.128 0.061 0.27c0.018 0.094 0.035 0.192 0.050 0.295v0l0.041 0.326 0.033 0.363 0.025 0.405 0.019 0.454 0.013 0.509 0.012 1.206 0.001 1.434c0 0.618-0.524 1.118-1.171 1.118v0h-18.991c-0.647 0-1.171-0.501-1.171-1.119v0l0-1.465 0.008-1.009 0.014-0.583 0.022-0.519 0.031-0.463c0.055-0.657 0.147-1.149 0.297-1.589v0l0.109-0.286c0.059-0.14 0.125-0.278 0.199-0.416 0.598-1.12 1.552-2.031 2.725-2.602 0.145-0.070 0.288-0.133 0.435-0.19v0l0.3-0.104c0.46-0.143 0.976-0.231 1.664-0.283v0l0.485-0.030 0.544-0.021 0.61-0.013 0.684-0.007h5.080zM18.6 19.638l-5.61 0.006-0.781 0.018-0.44 0.019-0.383 0.026-0.333 0.033c-0.207 0.025-0.385 0.055-0.543 0.092v0l-0.223 0.060c-0.14 0.043-0.265 0.093-0.383 0.15-0.733 0.356-1.328 0.925-1.701 1.625-0.060 0.113-0.112 0.232-0.158 0.366v0l-0.062 0.213c-0.038 0.151-0.070 0.321-0.096 0.519v0l-0.035 0.318-0.027 0.366-0.020 0.42-0.019 0.746-0.008 1.248h16.648l0-0.248-0.012-1.165-0.020-0.692-0.019-0.387-0.025-0.336-0.032-0.291c-0.006-0.045-0.012-0.088-0.018-0.13v0l-0.043-0.235-0.051-0.206-0.059-0.184-0.069-0.169-0.076-0.153c-0.373-0.7-0.969-1.268-1.701-1.625-0.118-0.058-0.243-0.107-0.384-0.15v0l-0.223-0.060c-0.158-0.037-0.336-0.067-0.543-0.092v0l-0.333-0.033-0.383-0.026-0.44-0.019-0.781-0.018-0.611-0.006zM16.1 4.1c3.094 0 5.602 2.395 5.602 5.35s-2.508 5.35-5.602 5.35c-3.094 0-5.602-2.395-5.602-5.35s2.508-5.35 5.602-5.35zM16.1 6.337c-1.801 0-3.26 1.394-3.26 3.113s1.46 3.113 3.26 3.113c1.801 0 3.26-1.394 3.26-3.113s-1.46-3.113-3.26-3.113z"></path>
</svg>
