<!-- Generated by IcoMoon.io -->
<svg version="1.1" xmlns="http://www.w3.org/2000/svg" width="32" height="32" viewBox="0 0 32 32">
<title>user_pwd</title>
<path d="M16.679 5.333c3.054 0 5.552 2.409 5.737 5.451 0.007 0.051 0.011 0.104 0.011 0.157v0.599c0 0.578-0.445 1.049-0.997 1.049-0.55 0-0.997-0.468-0.997-1.049v-0.599c0-0.086 0.011-0.17 0.029-0.25-0.22-1.914-1.829-3.399-3.783-3.399-2.105 0-3.811 1.725-3.811 3.854l0.005-0.115c0.002 0.024 0.002 0.047 0.002 0.071l-0 3.243 10.924 0.001c0.745 0.029 1.361 0.573 1.509 1.291l0.026 0.168v10.904c-0.123 0.648-0.624 1.158-1.263 1.289v0h-14.701c-0.712-0.103-1.275-0.677-1.37-1.399v0-10.629c0.002-0.897 0.724-1.624 1.611-1.624v0l1.269-0.001 0-3.243c0.001-0.131 0.024-0.256 0.066-0.371 0.209-3.017 2.696-5.399 5.733-5.399zM23.399 16.304h-13.461v9.734h13.461v-9.734zM16.893 20.593c0.55 0 0.997 0.468 0.997 1.049 0 0.578-0.445 1.049-0.997 1.049h-1.61c-0.55-0.003-0.997-0.471-0.997-1.049s0.445-1.049 0.997-1.049h1.61z"></path>
</svg>
